<svg width="320" height="255" viewBox="0 0 320 255" fill="none" xmlns="http://www.w3.org/2000/svg">
<g clip-path="url(#clip0_96_2)">
<ellipse cx="18.2245" cy="18.2287" rx="18.2245" ry="18.2287" transform="matrix(-0.0175452 0.999846 -0.999846 -0.0175372 109.091 98.6394)" fill="black"/>
<ellipse cx="90.5" cy="152.5" rx="18.5" ry="17.5" fill="black"/>
<ellipse cx="127" cy="116.5" rx="18" ry="18.5" fill="black"/>
<ellipse cx="127" cy="152.5" rx="18" ry="17.5" fill="black"/>
<path d="M160.616 136.288C159.48 136.288 158.456 136.112 157.544 135.76C156.632 135.392 155.856 134.856 155.216 134.152C154.576 133.432 154.08 132.544 153.728 131.488C153.376 130.416 153.2 129.168 153.2 127.744C153.2 126.336 153.376 125.088 153.728 124C154.08 122.896 154.576 121.976 155.216 121.24C155.856 120.488 156.632 119.92 157.544 119.536C158.456 119.152 159.48 118.96 160.616 118.96C162.168 118.96 163.448 119.28 164.456 119.92C165.464 120.544 166.272 121.536 166.88 122.896L163.736 124.528C163.512 123.824 163.16 123.264 162.68 122.848C162.216 122.416 161.528 122.2 160.616 122.2C159.544 122.2 158.68 122.552 158.024 123.256C157.384 123.944 157.064 124.952 157.064 126.28V128.968C157.064 130.296 157.384 131.312 158.024 132.016C158.68 132.704 159.544 133.048 160.616 133.048C161.512 133.048 162.224 132.808 162.752 132.328C163.296 131.832 163.696 131.24 163.952 130.552L166.928 132.28C166.304 133.56 165.48 134.552 164.456 135.256C163.448 135.944 162.168 136.288 160.616 136.288ZM175.896 136.288C174.792 136.288 173.784 136.104 172.872 135.736C171.96 135.368 171.184 134.824 170.544 134.104C169.904 133.368 169.408 132.464 169.056 131.392C168.704 130.304 168.528 129.048 168.528 127.624C168.528 126.2 168.704 124.952 169.056 123.88C169.408 122.792 169.904 121.888 170.544 121.168C171.184 120.432 171.96 119.88 172.872 119.512C173.784 119.144 174.792 118.96 175.896 118.96C177 118.96 178.008 119.144 178.92 119.512C179.832 119.88 180.608 120.432 181.248 121.168C181.888 121.888 182.384 122.792 182.736 123.88C183.088 124.952 183.264 126.2 183.264 127.624C183.264 129.048 183.088 130.304 182.736 131.392C182.384 132.464 181.888 133.368 181.248 134.104C180.608 134.824 179.832 135.368 178.92 135.736C178.008 136.104 177 136.288 175.896 136.288ZM175.896 133.048C177 133.048 177.856 132.688 178.464 131.968C179.088 131.248 179.4 130.216 179.4 128.872V126.376C179.4 125.032 179.088 124 178.464 123.28C177.856 122.56 177 122.2 175.896 122.2C174.792 122.2 173.928 122.56 173.304 123.28C172.696 124 172.392 125.032 172.392 126.376V128.872C172.392 130.216 172.696 131.248 173.304 131.968C173.928 132.688 174.792 133.048 175.896 133.048ZM189.447 136L184.047 119.248H187.743L190.239 127.288L191.559 132.544H191.631L192.903 127.288L195.399 119.248H198.975L193.527 136H189.447ZM201.168 136V119.248H212.568V122.488H204.816V125.92H211.464V129.136H204.816V132.76H212.568V136H201.168ZM219.394 136H215.746V119.248H223.69C224.458 119.248 225.154 119.376 225.778 119.632C226.402 119.888 226.93 120.256 227.362 120.736C227.81 121.2 228.154 121.76 228.394 122.416C228.634 123.072 228.754 123.8 228.754 124.6C228.754 125.736 228.498 126.728 227.986 127.576C227.49 128.424 226.73 129.04 225.706 129.424L228.994 136H224.938L222.01 129.856H219.394V136ZM223.234 126.784C223.778 126.784 224.202 126.648 224.506 126.376C224.826 126.088 224.986 125.672 224.986 125.128V124.072C224.986 123.528 224.826 123.12 224.506 122.848C224.202 122.56 223.778 122.416 223.234 122.416H219.394V126.784H223.234ZM242.238 136L241.038 132.016H235.446L234.246 136H230.55L236.07 119.248H240.582L246.03 136H242.238ZM238.278 122.56H238.158L236.31 128.92H240.15L238.278 122.56Z" fill="black"/>
</g>
<defs>
<clipPath id="clip0_96_2">
<rect width="320" height="255"/>
</clipPath>
</defs>
</svg>
